<svg xmlns="http://www.w3.org/2000/svg" width="205" height="48" viewBox="0 0 205 48" fill="none">
    <g clip-path="url(#clip0_405_910)">
        <path d="M23.2279 0.0152588C10.4009 0.0152588 0 10.7499 0 23.9923C0 37.2348 10.4009 47.977 23.2279 47.977C23.3402 47.977 23.4525 47.977 23.5649 47.977C23.6397 47.977 23.7071 47.977 23.782 47.977C24.411 47.9694 25.0325 47.9235 25.639 47.847C37.3354 46.6008 46.4558 36.3937 46.4558 23.9923C46.4558 10.7499 36.0549 0.0152588 23.2279 0.0152588ZM37.4552 38.7792C37.0134 39.0697 36.624 39.2838 36.3469 39.4214C36.3469 39.4214 34.7894 40.2701 33.1945 40.7289C32.8126 40.8359 32.4307 40.9277 32.0413 41.0118C31.8766 41.0423 31.7043 41.0729 31.5396 41.1035C31.5171 41.1111 31.4947 41.1111 31.4722 41.1111C31.3524 41.1341 31.2326 41.1494 31.1053 41.1647C30.4538 41.2488 29.7949 41.2946 29.121 41.2946C27.9454 41.2946 26.7922 41.157 25.6915 40.8971C24.8079 40.6906 23.9617 40.4001 23.1455 40.0407C21.311 39.2379 19.6636 38.0758 18.2858 36.6384C18.2783 36.8295 18.2708 37.0207 18.2708 37.2118C18.2708 39.0392 18.75 40.7442 19.5812 42.2121C19.7385 42.495 19.9107 42.7626 20.0979 43.0302C19.7235 42.8391 19.3566 42.625 19.0121 42.3803C16.4288 40.5989 14.729 37.5712 14.729 34.1229C14.729 33.2513 14.8413 32.4026 15.0435 31.5998C15.021 31.5845 15.021 31.5922 14.9985 31.5769C13.6058 33.2972 12.7671 35.5145 12.7671 37.9382C12.7671 38.0987 12.7746 38.2669 12.7821 38.4275C11.8985 36.7072 11.3968 34.7499 11.3968 32.6702C11.3968 30.4453 11.9734 28.3504 12.9768 26.546C12.2205 27.02 11.5391 27.5935 10.94 28.251C10.0789 29.1914 9.39749 30.3154 8.9482 31.5463C8.93323 31.3017 8.93323 31.0493 8.93323 30.797C8.93323 29.3443 9.14289 27.9375 9.52478 26.6148C10.1388 24.4969 11.2171 22.5779 12.6323 20.9952C13.4485 20.0777 14.377 19.2673 15.3954 18.5944C15.62 18.4492 15.8447 18.3039 16.0768 18.1739C17.4921 17.3482 19.0645 16.7671 20.7269 16.4918C21.0938 16.4307 21.4607 16.3848 21.8351 16.3542C21.8351 16.3542 22.202 16.3236 22.5615 16.316C24.1938 16.2701 25.7738 16.5989 25.7738 16.5989C25.7738 16.5989 26.7098 16.7977 27.6159 17.1188C27.9454 17.2411 28.2748 17.3711 28.5968 17.5164C28.2524 17.4093 27.9004 17.3176 27.541 17.2411C26.605 17.0423 25.639 16.9353 24.6431 16.9353C23.8045 16.9353 22.9883 17.0118 22.1945 17.157C22.0747 17.18 21.9549 17.2029 21.8351 17.2258C21.3334 17.3329 20.8392 17.4629 20.36 17.6234C19.2218 17.9981 18.151 18.518 17.1551 19.1679C16.1966 19.7948 15.313 20.5364 14.5268 21.3775C14.4594 21.4539 14.392 21.5227 14.3246 21.5992C13.6058 22.402 12.9693 23.2966 12.4376 24.2523C12.9244 24 13.4261 23.7859 13.9577 23.6253C14.4968 23.4571 15.0584 23.3348 15.635 23.2736C15.9795 23.2354 16.3314 23.2125 16.6908 23.2125C18.488 23.2125 20.1578 23.7324 21.588 24.6269C22.0298 24.9022 22.4491 25.2156 22.8385 25.5673C22.861 25.5903 22.8834 25.6132 22.9059 25.6285C23.3028 25.9802 23.7446 26.286 24.2238 26.5231C24.733 26.783 25.2871 26.9665 25.8637 27.0659C26.1932 27.1271 26.5301 27.1577 26.8746 27.1577C26.298 27.8075 25.7663 28.6256 25.4219 29.6655C24.9052 31.2405 24.4335 34.5129 26.3279 35.9732C28.0352 37.2806 30.4688 36.0497 30.6036 35.9885C32.251 35.1398 33.6962 33.1519 33.2469 31.8292C32.8126 30.5447 30.5287 30.5371 30.1319 29.1073C30.0121 28.6792 30.0046 28.2128 30.0046 28.2128C30.0046 27.8611 30.057 27.5552 30.1244 27.3106C30.1693 27.15 30.2217 27.0124 30.2666 26.9053C30.5587 26.1561 30.963 25.6438 31.1427 25.4221C31.2476 25.3074 31.3524 25.1927 31.4572 25.0857C31.6819 24.8716 31.9215 24.6728 32.1761 24.5046C33.0222 23.9312 34.0331 23.5947 35.1189 23.5947H35.1339C35.6281 23.5947 36.1073 23.6636 36.5566 23.7935C37.0433 23.9312 37.5076 24.1452 37.9269 24.4128C37.5001 23.5336 36.9085 22.7614 36.1897 22.1191C35.6056 21.5992 34.9467 21.171 34.2203 20.8576C33.8459 20.697 33.4565 20.567 33.0522 20.4676C32.9399 20.4447 32.835 20.4141 32.7227 20.3988C32.4831 20.3529 32.2435 20.3224 31.9964 20.2994C32.1312 20.2306 32.2585 20.1542 32.3932 20.0701C32.5655 19.963 32.7377 19.8407 32.9024 19.7183C32.9249 19.7031 32.9474 19.6878 32.9698 19.6648C33.6213 19.1602 34.1904 18.5485 34.6546 17.8604C35.4559 16.6524 35.9276 15.1844 35.9276 13.6094C35.9276 13.3953 35.9201 13.1889 35.9051 12.9824C35.8527 12.3631 35.7329 11.7668 35.5532 11.201C35.2911 10.3982 34.9017 9.65655 34.415 8.99901C33.6363 7.95154 32.5954 7.1258 31.3899 6.62118C31.6295 7.08757 31.7568 7.60749 31.7568 8.17327C31.7568 8.48675 31.7118 8.78493 31.637 9.06782C31.5546 9.35836 31.4423 9.64125 31.2925 9.89356C31.2551 9.96238 31.2101 10.0312 31.1652 10.0924C30.5886 10.9257 29.6526 11.4762 28.5893 11.4915C28.0202 11.0863 27.556 10.5129 27.2789 9.84769C27.1516 9.54951 27.0618 9.22838 27.0093 8.89962C26.9794 8.70083 26.9644 8.50204 26.9644 8.30325C26.9644 8.24973 26.9644 8.18856 26.9719 8.13504C27.0019 7.40105 27.234 6.71293 27.6084 6.1395C27.7582 5.90248 27.9379 5.6884 28.14 5.48961C27.7432 5.38257 27.3238 5.32141 26.897 5.31376C26.8821 5.31376 26.8746 5.31376 26.8596 5.31376C26.1258 5.31376 25.4219 5.48197 24.7929 5.78015C24.5982 5.8719 24.4185 5.9713 24.2388 6.08598C23.2878 6.69764 22.5465 7.63042 22.1646 8.7467C21.9849 9.2819 21.88 9.85534 21.88 10.4593C21.88 10.5511 21.88 10.6352 21.8875 10.7193C21.895 10.8187 21.9025 10.9257 21.91 11.0251C21.8651 11.0175 21.8201 11.0175 21.7752 11.0098C20.7044 10.8722 19.7984 10.1994 19.3191 9.25132C19.087 8.79258 18.9522 8.26502 18.9522 7.70688C18.9522 6.98054 19.1769 6.31535 19.5513 5.77251C18.121 6.17009 16.8631 7.00347 15.9196 8.11975C15.7623 8.30325 15.62 8.49439 15.4853 8.69318C14.9386 9.48834 14.5418 10.3905 14.3246 11.3692C14.2048 11.912 14.1449 12.4702 14.1449 13.0513C14.1449 13.2883 14.1524 13.5329 14.1749 13.7623C14.0101 13.7929 13.8379 13.8082 13.6582 13.8082C12.9693 13.8082 12.3328 13.5865 11.8086 13.2042C10.985 12.6002 10.4383 11.6062 10.4383 10.4823C10.4383 10.467 10.4383 10.4517 10.4383 10.4364C9.28517 11.5909 8.56631 13.2118 8.56631 15.0009C8.56631 15.5285 8.62622 16.0407 8.74603 16.5301C9.05304 17.8222 9.74194 18.9538 10.6854 19.8025C8.31172 22.7996 6.88899 26.6072 6.88899 30.7512C6.88899 34.4211 7.99722 37.8235 9.89918 40.6218C5.27158 36.6613 2.32878 30.6823 2.32878 24C2.32878 12.0802 11.6888 2.41602 23.2279 2.41602C34.7744 2.41602 44.127 12.0802 44.127 24C44.127 26.8824 43.3857 31.2099 41.5287 34.3217C40.967 35.2545 39.7765 37.25 37.4552 38.7792ZM28.8514 20.1465C28.1999 20.8423 27.2639 21.2246 26.2605 21.1175C25.2197 21.0028 24.3436 20.3759 23.8644 19.4966C24.2088 19.3055 25.1373 18.862 26.3654 18.992C27.7057 19.1449 28.5743 19.8866 28.8514 20.1465Z" fill="white"/>
        <path d="M76.4527 36.822C74.1988 37.8312 71.3833 38.3359 67.9987 38.3359C58.1444 38.3359 53.2173 33.3891 53.2173 23.4878C53.2173 14.1218 58.2268 9.43494 68.2533 9.43494C71.3084 9.43494 74.0415 9.90133 76.4527 10.8341V15.6203C74.0415 14.5576 71.4432 14.0224 68.6426 14.0224C61.9408 14.0224 58.5862 17.1801 58.5862 23.4878C58.5862 30.3308 61.7462 33.7561 68.0735 33.7561C69.0096 33.7561 70.0803 33.5955 71.2784 33.2744V24.9787H76.4527V36.822Z" fill="white"/>
        <path d="M79.8672 31.6152C79.8672 27.456 82.8325 25.3763 88.7705 25.3763C90.1632 25.3763 91.556 25.5063 92.9488 25.7739V24.1989C92.9488 22.3257 91.6309 21.3852 88.9876 21.3852C86.7487 21.3852 84.2627 21.714 81.5295 22.3792V18.197C84.2627 17.5318 86.7487 17.203 88.9876 17.203C95.0754 17.203 98.123 19.5044 98.123 24.0995V38.1294H95.1128L93.2783 36.2562C91.4961 37.5025 89.5268 38.1294 87.3852 38.1294C82.3757 38.1371 79.8672 35.9657 79.8672 31.6152ZM88.7705 28.9698C86.2844 28.9698 85.0414 29.8338 85.0414 31.5617C85.0414 33.4196 86.0823 34.3524 88.1639 34.3524C89.8787 34.3524 91.4737 33.8096 92.9488 32.7162V29.3674C91.6459 29.0998 90.2531 28.9698 88.7705 28.9698Z" fill="white"/>
        <path d="M108.18 9.63367H103.005V38.137H108.18V9.63367Z" fill="white"/>
        <path d="M112.081 27.67C112.081 20.6512 115.465 17.1418 122.234 17.1418C129.004 17.1418 132.388 20.6512 132.388 27.67C132.388 34.6735 129.004 38.1753 122.234 38.1753C115.488 38.1753 112.111 34.6735 112.081 27.67ZM122.234 34.1536C125.552 34.1536 127.214 31.9669 127.214 27.5936C127.214 23.3273 125.552 21.1941 122.234 21.1941C118.917 21.1941 117.255 23.3273 117.255 27.5936C117.255 31.9669 118.917 34.1536 122.234 34.1536Z" fill="white"/>
        <path d="M136.582 37.1431V35.1476C138.858 35.9427 141.097 36.3403 143.299 36.3403C147.604 36.3403 149.761 34.9411 149.761 32.1504C149.761 29.8873 148.166 28.7634 144.976 28.7634H142.363C138.064 28.7634 135.923 26.9055 135.923 23.182C135.923 19.1985 138.768 17.203 144.452 17.203C146.638 17.203 148.87 17.5318 151.146 18.197V20.1925C148.87 19.3973 146.638 18.9998 144.452 18.9998C140.131 18.9998 137.967 20.3913 137.967 23.1896C137.967 25.5827 139.435 26.7755 142.363 26.7755H144.976C149.529 26.7755 151.812 28.5722 151.812 32.1581C151.812 36.1415 148.975 38.1371 143.299 38.1371C141.097 38.1371 138.858 37.8083 136.582 37.1431Z" fill="white"/>
        <path d="M156.103 27.67C156.103 20.5594 159.293 17.0042 165.673 17.0042C172.053 17.0042 175.242 20.5594 175.242 27.67C175.242 34.7652 172.053 38.3128 165.673 38.3128C159.323 38.3128 156.133 34.7652 156.103 27.67ZM165.673 36.539C170.682 36.539 173.191 33.5572 173.191 27.5859C173.191 21.7216 170.682 18.7933 165.673 18.7933C160.663 18.7933 158.155 21.7216 158.155 27.5859C158.155 33.5572 160.663 36.539 165.673 36.539Z" fill="white"/>
        <path d="M180.506 38.137V16.1861C180.506 11.1246 183.254 8.59387 188.743 8.59387C190.421 8.59387 191.948 8.86147 193.311 9.38903V11.1858C192.023 10.6506 190.495 10.3906 188.721 10.3906C184.61 10.3906 182.551 12.3403 182.551 16.232V17.203C187.141 17.203 191.738 17.203 196.329 17.203C196.329 17.7994 196.329 18.3957 196.329 18.9997C191.738 18.9997 187.141 18.9997 182.551 18.9997V38.137H180.506Z" fill="white"/>
        <path d="M192.847 13.8159H194.292L194.666 17.203H200.814V18.9997H194.839V32.2192C194.839 34.9717 195.827 36.3479 197.804 36.3479H200.806V38.1447H197.841C194.509 38.1447 192.847 36.2638 192.847 32.5021V13.8159Z" fill="white"/>
        <path d="M200.882 4.48804C198.643 4.48804 196.831 6.33066 196.831 8.5938C196.831 10.8646 198.643 12.6996 200.882 12.6996C203.121 12.6996 204.933 10.8569 204.933 8.5938C204.933 6.32302 203.121 4.48804 200.882 4.48804ZM200.882 12.2714C198.882 12.2714 197.257 10.6276 197.257 8.5938C197.257 6.56003 198.882 4.9162 200.882 4.9162C202.881 4.9162 204.506 6.56003 204.506 8.5938C204.506 10.6276 202.881 12.2714 200.882 12.2714Z" fill="white"/>
        <path d="M199.601 10.5664V6.62122H201.256C201.997 6.62122 202.364 6.93469 202.364 7.56929C202.364 8.08155 202.005 8.46384 201.278 8.7085L202.611 10.5664H201.945L200.709 8.79261V8.4562C201.451 8.33386 201.825 8.04332 201.825 7.58458C201.825 7.21758 201.615 7.04173 201.204 7.04173H200.095V10.5664H199.601Z" fill="white"/>
    </g>
    <defs>
        <clipPath id="clip0_405_910">
            <rect width="205" height="48" fill="white"/>
        </clipPath>
    </defs>
</svg>
